<svg width="1600" height="1000" viewBox="0 0 1600 1000" fill="none" xmlns="http://www.w3.org/2000/svg">
  <rect width="1600" height="1000" rx="60" fill="#F7F7F9"/>
  <rect x="186" y="144" width="1228" height="712" rx="42" fill="#FBFBFC" stroke="#DCE0E8" stroke-width="4"/>
  <g stroke="#90A6CE" stroke-width="4" stroke-dasharray="12 8">
    <rect x="288" y="256" width="234" height="234" rx="20"/>
    <rect x="534" y="256" width="234" height="234" rx="20"/>
    <rect x="780" y="256" width="234" height="234" rx="20"/>
    <rect x="1026" y="256" width="234" height="234" rx="20"/>
    <rect x="288" y="502" width="234" height="234" rx="20"/>
    <rect x="534" y="502" width="234" height="234" rx="20"/>
    <rect x="780" y="502" width="234" height="234" rx="20"/>
    <rect x="1026" y="502" width="234" height="234" rx="20"/>
  </g>
  <path d="M288 256L522 490" stroke="#B6C4DF" stroke-width="4"/>
  <path d="M534 256L768 490" stroke="#B6C4DF" stroke-width="4"/>
  <path d="M780 256L1014 490" stroke="#B6C4DF" stroke-width="4"/>
  <path d="M1026 256L1260 490" stroke="#B6C4DF" stroke-width="4"/>
  <circle cx="1270" cy="206" r="28" fill="#7EA6FF"/>
  <circle cx="1324" cy="182" r="18" fill="#A8B5A2"/>
</svg>
